<?xml version="1.0" standalone="no"?>
<!DOCTYPE svg PUBLIC "-//W3C//DTD SVG 20010904//EN"
 "http://www.w3.org/TR/2001/REC-SVG-20010904/DTD/svg10.dtd">
<svg version="1.0" xmlns="http://www.w3.org/2000/svg"
 width="128.000000pt" height="128.000000pt" viewBox="0 0 128.000000 128.000000"
 preserveAspectRatio="xMidYMid meet">
<metadata>
Created by potrace 1.16, written by Peter Selinger 2001-2019
</metadata>
<g transform="translate(0.000000,128.000000) scale(0.100000,-0.100000)"
fill="#000000" stroke="none">
<path d="M80 644 l0 -526 243 4 c197 4 251 8 292 23 73 26 131 69 162 122 23
40 28 61 31 140 4 85 2 97 -23 149 -29 59 -87 106 -145 119 l-29 6 39 35 c56
51 74 104 68 209 -4 74 -8 91 -34 128 -64 91 -163 117 -451 117 l-153 0 0
-526z m355 310 c84 -40 61 -164 -34 -179 -20 -4 -46 -8 -58 -11 -23 -4 -23 -3
-23 101 l0 105 41 0 c23 0 56 -7 74 -16z m48 -418 c64 -27 89 -87 63 -150 -20
-48 -64 -66 -156 -66 l-70 0 0 115 0 115 65 0 c36 0 80 -6 98 -14z"/>
<path d="M995 390 c-11 -4 -33 -22 -49 -39 -40 -41 -48 -129 -17 -178 55 -87
198 -87 251 0 26 42 26 121 1 163 -32 53 -125 80 -186 54z"/>
</g>
</svg>
